<svg id="Icons" xmlns="http://www.w3.org/2000/svg" viewBox="0 0 100 100"><defs><style>.cls-1{fill:#ebce8c;}</style></defs><title>insta</title><path class="cls-1" d="M59.08,51a8.64,8.64,0,1,0-8.64,8.64A8.65,8.65,0,0,0,59.08,51Z"/><path class="cls-1" d="M50.45,30.16a20.68,20.68,0,0,1,12,3.85H93.81v-6.1A21.92,21.92,0,0,0,71.91,6H28.08a21.92,21.92,0,0,0-21.9,21.9V34H38.41A20.68,20.68,0,0,1,50.45,30.16Zm18-10.84a2.44,2.44,0,0,1,2.43-2.43h7.52a2.44,2.44,0,0,1,2.43,2.43v7.52a2.44,2.44,0,0,1-2.43,2.43H70.83a2.44,2.44,0,0,1-2.43-2.43Z"/><path class="cls-1" d="M71.25,51a20.8,20.8,0,1,1-39.63-8.84H6.18v30A21.92,21.92,0,0,0,28.08,94H71.92a21.92,21.92,0,0,0,21.9-21.9v-30H69.28A20.67,20.67,0,0,1,71.25,51Z"/></svg>