<?xml version="1.0" encoding="utf-8"?>
<!-- Generator: Adobe Illustrator 21.1.0, SVG Export Plug-In . SVG Version: 6.00 Build 0)  -->
<svg version="1.1" id="Layer_1" xmlns="http://www.w3.org/2000/svg" xmlns:xlink="http://www.w3.org/1999/xlink" x="0px" y="0px"
	 viewBox="0 0 122.9 122.9" style="enable-background:new 0 0 122.9 122.9;" xml:space="preserve">
<style type="text/css">
	.st0{fill:none;}
	.st1{fill:#EBCE8C;}
</style>
<g id="Layer_x0020_1">
	<rect class="st0" width="122.9" height="122.9"/>
	<path class="st1" d="M42.8,66.8c0.9,0.4,1.7,0,2-1c0.2-0.7,0.6-2.5,0.8-3.2c0.3-1,0.2-1.4-0.6-2.2c-1.6-1.9-2.6-4.3-2.6-7.8
		c0-10,7.5-19,19.6-19c10.7,0,16.5,6.5,16.5,15.2c0,11.5-5.1,21.1-12.6,21.1c-4.2,0-7.3-3.4-6.3-7.6c1.2-5,3.5-10.5,3.5-14.1
		c0-3.3-1.7-6-5.4-6c-4.2,0-7.7,4.4-7.7,10.3c0,3.7,1.3,6.3,1.3,6.3S47,77.3,46.3,80.5c-1.5,6.4-0.2,14.3-0.1,15.1
		c0.1,0.5,0.7,0.6,0.9,0.2c0.4-0.5,5.5-6.8,7.2-13c0.5-1.8,2.8-10.9,2.8-10.9c1.4,2.6,5.4,5,9.7,5c12.8,0,21.4-11.6,21.4-27.2
		c0-11.8-10-22.7-25.1-22.7c-18.9,0-28.4,13.5-28.4,24.8C34.7,58.5,37.3,64.6,42.8,66.8z"/>
</g>
</svg>
